<svg xmlns="http://www.w3.org/2000/svg" viewBox="0 0 32 32" width="27" height="27" style="border-color: rgba(187,187,187,1);border-width: 0px;border-style: solid" filter="none">
    <path d="M16 2.667c7.36 0 13.333 5.973 13.333 13.333s-5.973 13.333-13.333 13.333-13.333-5.973-13.333-13.333 5.973-13.333 13.333-13.333zM16 8c-3.681 0-6.667 3.581-6.667 8s2.985 8 6.667 8 6.667-3.581 6.667-8-2.985-8-6.667-8zM19.1 12.629c0.563 0.92 0.9 2.093 0.9 3.371 0 2.947-1.791 5.333-4 5.333-0.504 0-0.987-0.124-1.431-0.351l-0.219-0.123 4.749-8.231zM16 10.667c0.504 0 0.987 0.124 1.431 0.351l0.219 0.123-4.749 8.231c-0.563-0.92-0.9-2.093-0.9-3.371 0-2.947 1.791-5.333 4-5.333z" fill="rgba(255, 255, 255, 1)"></path>
  </svg>